<?xml version="1.0" encoding="utf-8"?>
<!-- Svg Vector Icons : http://www.onlinewebfonts.com/icon -->
<!DOCTYPE svg PUBLIC "-//W3C//DTD SVG 1.1//EN" "http://www.w3.org/Graphics/SVG/1.1/DTD/svg11.dtd">
<svg version="1.1" xmlns="http://www.w3.org/2000/svg" xmlns:xlink="http://www.w3.org/1999/xlink" x="0px" y="0px" viewBox="0 0 1000 1000" enable-background="new 0 0 1000 1000" xml:space="preserve">
<metadata> Svg Vector Icons : http://www.onlinewebfonts.com/icon </metadata>
<g><path d="M950.4,152.6H223.9c-21.9,0-39.6,17.7-39.6,39.6v36.6c0,21.9,17.7,39.6,39.6,39.6h726.5c21.9,0,39.6-17.7,39.6-39.6v-36.6C990,170.3,972.3,152.6,950.4,152.6z"/><path d="M950.4,442.1H223.9c-21.9,0-39.6,17.7-39.6,39.6v36.6c0,21.9,17.7,39.6,39.6,39.6h726.5c21.9,0,39.6-17.7,39.6-39.6v-36.6C990,459.8,972.3,442.1,950.4,442.1z"/><path d="M950.4,731.6H223.9c-21.9,0-39.6,17.7-39.6,39.6v36.6c0,21.9,17.7,39.6,39.6,39.6h726.5c21.9,0,39.6-17.7,39.6-39.6v-36.6C990,749.4,972.3,731.6,950.4,731.6z"/><path d="M10,210.5c0,32,26,58,58,58c32,0,58-26,58-58c0-32-26-58-58-58C36,152.5,10,178.5,10,210.5z"/><path d="M10,488.4c0,32,26,58,58,58c32,0,58-26,58-58c0-32-26-58-58-58C36,430.4,10,456.4,10,488.4z"/><path d="M10,789.5c0,32,26,58,58,58c32,0,58-26,58-58c0-32-26-58-58-58C36,731.5,10,757.5,10,789.5L10,789.5z"/></g>
</svg>